STARTFONT 2.1
COMMENT the Lisp Machine name for this font was "20fcor.ast"
FONT fcor-20.bdf
SIZE 19 75 75
FONTBOUNDINGBOX 16 16 0 0
STARTPROPERTIES 3
FONT_DESCENT 4
FONT_ASCENT 16
COPYRIGHT "Public domain font.  Share and enjoy."
ENDPROPERTIES
CHARS 97
STARTCHAR C013
ENCODING 11
SWIDTH 842 0
DWIDTH 16 0
BBX 16 20 0 -4
BITMAP
0000
0000
0000
0600
0600
0f00
1f80
36c0
6660
c630
0600
0600
0600
0600
0600
0600
0000
0000
0000
0000
ENDCHAR
STARTCHAR C030
ENCODING 24
SWIDTH 842 0
DWIDTH 16 0
BBX 16 20 0 -4
BITMAP
0000
0000
0000
0000
0000
0000
0000
0300
0e00
3800
fffc
fffc
3800
0e00
0300
0000
0000
0000
0000
0000
ENDCHAR
STARTCHAR C040
ENCODING 32
SWIDTH 842 0
DWIDTH 16 0
BBX 16 20 0 -4
BITMAP
00
00
00
00
00
00
00
00
00
00
00
00
00
00
00
00
00
00
00
00
ENDCHAR
STARTCHAR !
ENCODING 33
SWIDTH 842 0
DWIDTH 16 0
BBX 16 20 0 -4
BITMAP
00
60
f0
f0
f0
f0
f0
f0
60
60
60
60
00
60
f0
60
00
00
00
00
ENDCHAR
STARTCHAR "
ENCODING 34
SWIDTH 842 0
DWIDTH 16 0
BBX 16 20 0 -4
BITMAP
0000
e380
e380
e380
e380
6180
6180
0000
0000
0000
0000
0000
0000
0000
0000
0000
0000
0000
0000
0000
ENDCHAR
STARTCHAR #
ENCODING 35
SWIDTH 842 0
DWIDTH 16 0
BBX 16 20 0 -4
BITMAP
0000
18c0
18c0
18c0
18c0
18c0
fff8
18c0
18c0
18c0
fff8
18c0
18c0
18c0
18c0
18c0
0000
0000
0000
0000
ENDCHAR
STARTCHAR $
ENCODING 36
SWIDTH 842 0
DWIDTH 16 0
BBX 16 20 0 -4
BITMAP
0000
0600
0600
3fc0
e0c0
c040
c000
7800
0f80
00c0
8060
c060
e1c0
ff00
0c00
0c00
0c00
0c00
0000
0000
ENDCHAR
STARTCHAR %
ENCODING 37
SWIDTH 842 0
DWIDTH 16 0
BBX 16 20 0 -4
BITMAP
0000
0000
0000
7e00
c300
c300
c300
7e30
03c0
3c00
e7e0
0c30
0c30
0c30
07e0
0000
0000
0000
0000
0000
ENDCHAR
STARTCHAR &
ENCODING 38
SWIDTH 842 0
DWIDTH 16 0
BBX 16 20 0 -4
BITMAP
0000
0000
0000
0000
0f00
19e0
3040
3000
3000
1c00
7618
e330
c1b0
c0e0
63f0
3e18
0000
0000
0000
0000
ENDCHAR
STARTCHAR '
ENCODING 39
SWIDTH 842 0
DWIDTH 16 0
BBX 16 20 0 -4
BITMAP
00
f0
f0
f0
70
70
70
00
00
00
00
00
00
00
00
00
00
00
00
00
ENDCHAR
STARTCHAR (
ENCODING 40
SWIDTH 842 0
DWIDTH 16 0
BBX 16 20 0 -4
BITMAP
00
18
30
60
60
60
c0
c0
c0
c0
c0
c0
60
60
60
30
18
00
00
00
ENDCHAR
STARTCHAR )
ENCODING 41
SWIDTH 842 0
DWIDTH 16 0
BBX 16 20 0 -4
BITMAP
00
c0
60
30
30
30
18
18
18
18
18
18
30
30
30
60
c0
00
00
00
ENDCHAR
STARTCHAR *
ENCODING 42
SWIDTH 842 0
DWIDTH 16 0
BBX 16 20 0 -4
BITMAP
0000
0000
0000
0e00
0e00
ce60
ffe0
0e00
1f00
3b80
71c0
0000
0000
0000
0000
0000
0000
0000
0000
0000
ENDCHAR
STARTCHAR +
ENCODING 43
SWIDTH 842 0
DWIDTH 16 0
BBX 16 20 0 -4
BITMAP
0000
0000
0000
0000
0000
0300
0300
0300
0300
fffc
fffc
0300
0300
0300
0300
0300
0000
0000
0000
0000
ENDCHAR
STARTCHAR ,
ENCODING 44
SWIDTH 842 0
DWIDTH 16 0
BBX 16 20 0 -4
BITMAP
00
00
00
00
00
00
00
00
00
00
00
00
00
3c
3c
78
70
e0
c0
00
ENDCHAR
STARTCHAR -
ENCODING 45
SWIDTH 842 0
DWIDTH 16 0
BBX 16 20 0 -4
BITMAP
0000
0000
0000
0000
0000
0000
0000
0000
fff0
fff0
0000
0000
0000
0000
0000
0000
0000
0000
0000
0000
ENDCHAR
STARTCHAR .
ENCODING 46
SWIDTH 842 0
DWIDTH 16 0
BBX 16 20 0 -4
BITMAP
00
00
00
00
00
00
00
00
00
00
00
00
00
70
f8
f8
70
00
00
00
ENDCHAR
STARTCHAR /
ENCODING 47
SWIDTH 842 0
DWIDTH 16 0
BBX 16 20 0 -4
BITMAP
0000
0001
0003
0006
000c
0018
0030
0060
00c0
0180
0300
0600
0c00
1800
3000
6000
c000
8000
0000
0000
ENDCHAR
STARTCHAR 0
ENCODING 48
SWIDTH 842 0
DWIDTH 16 0
BBX 16 20 0 -4
BITMAP
0000
0000
0000
1f80
30c0
6060
6060
c030
c030
c030
c030
c030
6060
6060
30c0
1f80
0000
0000
0000
0000
ENDCHAR
STARTCHAR 1
ENCODING 49
SWIDTH 842 0
DWIDTH 16 0
BBX 16 20 0 -4
BITMAP
00
00
00
18
38
78
d8
18
18
18
18
18
18
18
18
fe
00
00
00
00
ENDCHAR
STARTCHAR 2
ENCODING 50
SWIDTH 842 0
DWIDTH 16 0
BBX 16 20 0 -4
BITMAP
0000
0000
0000
0e00
3f80
60c0
c060
0060
0060
00c0
0180
0700
1c00
3000
e060
ffe0
0000
0000
0000
0000
ENDCHAR
STARTCHAR 3
ENCODING 51
SWIDTH 842 0
DWIDTH 16 0
BBX 16 20 0 -4
BITMAP
0000
0000
0000
1f00
71c0
6060
0060
0060
01c0
0f80
01c0
0060
0060
0060
f1c0
3f80
0000
0000
0000
0000
ENDCHAR
STARTCHAR 4
ENCODING 52
SWIDTH 842 0
DWIDTH 16 0
BBX 16 20 0 -4
BITMAP
0000
0000
0000
00c0
01c0
03c0
06c0
0cc0
18c0
30c0
60c0
c0c0
fff8
00c0
00c0
03f0
0000
0000
0000
0000
ENDCHAR
STARTCHAR 5
ENCODING 53
SWIDTH 842 0
DWIDTH 16 0
BBX 16 20 0 -4
BITMAP
0000
0000
0000
7fe0
6000
6000
6000
6000
7f80
60e0
0030
0030
0030
0030
e0e0
3f80
0000
0000
0000
0000
ENDCHAR
STARTCHAR 6
ENCODING 54
SWIDTH 842 0
DWIDTH 16 0
BBX 16 20 0 -4
BITMAP
0000
0000
0000
0fc0
3860
6000
6000
c000
cf80
f8e0
e030
c030
c030
6030
38e0
0f80
0000
0000
0000
0000
ENDCHAR
STARTCHAR 7
ENCODING 55
SWIDTH 842 0
DWIDTH 16 0
BBX 16 20 0 -4
BITMAP
0000
0000
0000
fff0
c060
0060
00c0
00c0
0180
0180
0300
0300
0600
0600
0c00
0c00
0000
0000
0000
0000
ENDCHAR
STARTCHAR 8
ENCODING 56
SWIDTH 842 0
DWIDTH 16 0
BBX 16 20 0 -4
BITMAP
0000
0000
0000
1f80
70e0
c030
c030
c030
6060
3fc0
70e0
c030
c030
c030
70e0
1f80
0000
0000
0000
0000
ENDCHAR
STARTCHAR 9
ENCODING 57
SWIDTH 842 0
DWIDTH 16 0
BBX 16 20 0 -4
BITMAP
0000
0000
0000
1f00
71c0
c060
c030
c030
c070
61f0
3f30
0030
0060
00e0
0380
7e00
0000
0000
0000
0000
ENDCHAR
STARTCHAR :
ENCODING 58
SWIDTH 842 0
DWIDTH 16 0
BBX 16 20 0 -4
BITMAP
00
00
00
00
00
00
00
00
70
f8
70
00
00
70
f8
70
00
00
00
00
ENDCHAR
STARTCHAR ;
ENCODING 59
SWIDTH 842 0
DWIDTH 16 0
BBX 16 20 0 -4
BITMAP
00
00
00
00
00
00
00
38
7c
38
00
00
38
78
78
f0
e0
c0
00
00
ENDCHAR
STARTCHAR <
ENCODING 60
SWIDTH 842 0
DWIDTH 16 0
BBX 16 20 0 -4
BITMAP
00
00
00
03
06
0c
18
30
60
c0
60
30
18
0c
06
03
00
00
00
00
ENDCHAR
STARTCHAR =
ENCODING 61
SWIDTH 842 0
DWIDTH 16 0
BBX 16 20 0 -4
BITMAP
0000
0000
0000
0000
0000
0000
0000
fffc
fffc
0000
0000
fffc
fffc
0000
0000
0000
0000
0000
0000
0000
ENDCHAR
STARTCHAR >
ENCODING 62
SWIDTH 842 0
DWIDTH 16 0
BBX 16 20 0 -4
BITMAP
00
00
00
c0
60
30
18
0c
06
03
06
0c
18
30
60
c0
00
00
00
00
ENDCHAR
STARTCHAR ?
ENCODING 63
SWIDTH 842 0
DWIDTH 16 0
BBX 16 20 0 -4
BITMAP
0000
0000
0000
0000
3f80
60c0
c060
0060
00e0
0380
0e00
0c00
0000
0000
1e00
1e00
0000
0000
0000
0000
ENDCHAR
STARTCHAR @
ENCODING 64
SWIDTH 842 0
DWIDTH 16 0
BBX 16 20 0 -4
BITMAP
0000
07c0
1c70
3030
6018
6018
c3f8
c618
cc18
cc18
c638
c3ec
600c
6000
3810
0ff0
0000
0000
0000
0000
ENDCHAR
STARTCHAR A
ENCODING 65
SWIDTH 842 0
DWIDTH 16 0
BBX 16 20 0 -4
BITMAP
0000
0000
0000
0000
1fc0
03c0
0660
0660
0c30
0c30
1818
1ff8
300c
300c
6006
fc3f
0000
0000
0000
0000
ENDCHAR
STARTCHAR B
ENCODING 66
SWIDTH 842 0
DWIDTH 16 0
BBX 16 20 0 -4
BITMAP
0000
0000
0000
0000
ffe0
3030
3018
3018
3030
3ff0
3018
300c
300c
300c
3038
ffe0
0000
0000
0000
0000
ENDCHAR
STARTCHAR C
ENCODING 67
SWIDTH 842 0
DWIDTH 16 0
BBX 16 20 0 -4
BITMAP
0000
0000
0000
0000
0ff4
381c
600c
6004
c000
c000
c000
c000
e000
700c
383c
0fe0
0000
0000
0000
0000
ENDCHAR
STARTCHAR D
ENCODING 68
SWIDTH 842 0
DWIDTH 16 0
BBX 16 20 0 -4
BITMAP
0000
0000
0000
0000
ffc0
3070
3018
300c
300c
300c
300c
300c
300c
3018
3070
ffc0
0000
0000
0000
0000
ENDCHAR
STARTCHAR E
ENCODING 69
SWIDTH 842 0
DWIDTH 16 0
BBX 16 20 0 -4
BITMAP
0000
0000
0000
0000
fffc
180c
1804
1804
1840
1fc0
1840
1840
1804
1804
180c
fffc
0000
0000
0000
0000
ENDCHAR
STARTCHAR F
ENCODING 70
SWIDTH 842 0
DWIDTH 16 0
BBX 16 20 0 -4
BITMAP
0000
0000
0000
0000
fffc
300c
300c
300c
3080
3f80
3080
3080
3000
3000
3000
ff00
0000
0000
0000
0000
ENDCHAR
STARTCHAR G
ENCODING 71
SWIDTH 842 0
DWIDTH 16 0
BBX 16 20 0 -4
BITMAP
0000
0000
0000
0000
0fec
383c
600c
6000
c000
c000
c0fe
c00e
600e
600c
3838
0fe0
0000
0000
0000
0000
ENDCHAR
STARTCHAR H
ENCODING 72
SWIDTH 842 0
DWIDTH 16 0
BBX 16 20 0 -4
BITMAP
0000
0000
0000
0000
fc7e
3018
3018
3018
3018
3ff8
3018
3018
3018
3018
3018
fc7e
0000
0000
0000
0000
ENDCHAR
STARTCHAR I
ENCODING 73
SWIDTH 842 0
DWIDTH 16 0
BBX 16 20 0 -4
BITMAP
0000
0000
0000
0000
fff0
0600
0600
0600
0600
0600
0600
0600
0600
0600
0600
fff0
0000
0000
0000
0000
ENDCHAR
STARTCHAR J
ENCODING 74
SWIDTH 842 0
DWIDTH 16 0
BBX 16 20 0 -4
BITMAP
0000
0000
0000
0000
0ffc
0060
0060
0060
0060
0060
0060
c060
c060
c060
61c0
3f00
0000
0000
0000
0000
ENDCHAR
STARTCHAR K
ENCODING 75
SWIDTH 842 0
DWIDTH 16 0
BBX 16 20 0 -4
BITMAP
0000
0000
0000
0000
fcfc
3070
30c0
3180
3300
3f00
3300
3180
30c0
3060
3030
fc1e
0000
0000
0000
0000
ENDCHAR
STARTCHAR L
ENCODING 76
SWIDTH 842 0
DWIDTH 16 0
BBX 16 20 0 -4
BITMAP
0000
0000
0000
0000
7fc0
0c00
0c00
0c00
0c00
0c00
0c00
0c02
0c02
0c02
0c02
fffe
0000
0000
0000
0000
ENDCHAR
STARTCHAR M
ENCODING 77
SWIDTH 842 0
DWIDTH 16 0
BBX 16 20 0 -4
BITMAP
0000
0000
0000
0000
781f
3c1e
3c36
3636
3666
3366
3346
31c6
3186
3006
3006
fc1f
0000
0000
0000
0000
ENDCHAR
STARTCHAR N
ENCODING 78
SWIDTH 842 0
DWIDTH 16 0
BBX 16 20 0 -4
BITMAP
0000
0000
0000
0000
f0fc
7818
7818
6c18
6618
6318
6198
6198
60d8
6078
6038
fc18
0000
0000
0000
0000
ENDCHAR
STARTCHAR O
ENCODING 79
SWIDTH 842 0
DWIDTH 16 0
BBX 16 20 0 -4
BITMAP
0000
0000
0000
0000
0fe0
3838
600c
600e
c006
c006
c006
c006
600c
6018
3870
0fc0
0000
0000
0000
0000
ENDCHAR
STARTCHAR P
ENCODING 80
SWIDTH 842 0
DWIDTH 16 0
BBX 16 20 0 -4
BITMAP
0000
0000
0000
0000
ffe0
1838
180c
180c
180c
1838
1fe0
1800
1800
1800
1800
ff00
0000
0000
0000
0000
ENDCHAR
STARTCHAR Q
ENCODING 81
SWIDTH 842 0
DWIDTH 16 0
BBX 16 20 0 -4
BITMAP
0000
0000
0000
0000
0fe0
3838
600c
600e
c006
c006
c006
c006
600c
6018
3870
0fc0
0700
0c00
3f8c
60f8
ENDCHAR
STARTCHAR R
ENCODING 82
SWIDTH 842 0
DWIDTH 16 0
BBX 16 20 0 -4
BITMAP
0000
0000
0000
0000
ffe0
1838
180c
180c
180c
1838
1fe0
1860
1830
1818
180c
ff07
0000
0000
0000
0000
ENDCHAR
STARTCHAR S
ENCODING 83
SWIDTH 842 0
DWIDTH 16 0
BBX 16 20 0 -4
BITMAP
0000
0000
0000
0000
1fa0
7060
c020
c000
6000
3f80
00e0
0030
8030
c030
f0e0
9f80
0000
0000
0000
0000
ENDCHAR
STARTCHAR T
ENCODING 84
SWIDTH 842 0
DWIDTH 16 0
BBX 16 20 0 -4
BITMAP
0000
0000
0000
0000
fffc
c30c
c30c
c30c
c30c
0300
0300
0300
0300
0300
0300
3ff0
0000
0000
0000
0000
ENDCHAR
STARTCHAR U
ENCODING 85
SWIDTH 842 0
DWIDTH 16 0
BBX 16 20 0 -4
BITMAP
0000
0000
0000
0000
fc7e
3008
3008
3008
3008
3008
3008
3008
3008
3008
1810
0fe0
0000
0000
0000
0000
ENDCHAR
STARTCHAR V
ENCODING 86
SWIDTH 842 0
DWIDTH 16 0
BBX 16 20 0 -4
BITMAP
0000
0000
0000
0000
fc3f
600c
3008
3018
1810
1830
0c20
0c60
0640
06c0
0380
0180
0000
0000
0000
0000
ENDCHAR
STARTCHAR W
ENCODING 87
SWIDTH 842 0
DWIDTH 16 0
BBX 16 20 0 -4
BITMAP
0000
0000
0000
0000
fc3f
6006
6006
6186
6186
33cc
324c
366c
342c
1c38
1838
1818
0000
0000
0000
0000
ENDCHAR
STARTCHAR X
ENCODING 88
SWIDTH 842 0
DWIDTH 16 0
BBX 16 20 0 -4
BITMAP
0000
0000
0000
0000
7c7e
3818
1c30
0e60
07c0
0380
03c0
06e0
0c70
1838
301c
fc7e
0000
0000
0000
0000
ENDCHAR
STARTCHAR Y
ENCODING 89
SWIDTH 842 0
DWIDTH 16 0
BBX 16 20 0 -4
BITMAP
0000
0000
0000
0000
f87c
6018
3030
1860
0cc0
0780
0300
0300
0300
0300
0300
1ff0
0000
0000
0000
0000
ENDCHAR
STARTCHAR Z
ENCODING 90
SWIDTH 842 0
DWIDTH 16 0
BBX 16 20 0 -4
BITMAP
0000
0000
0000
0000
7ff8
6030
6060
60c0
0180
0300
0600
0c00
180c
300c
600c
fffc
0000
0000
0000
0000
ENDCHAR
STARTCHAR [
ENCODING 91
SWIDTH 842 0
DWIDTH 16 0
BBX 16 20 0 -4
BITMAP
00
00
00
fc
c0
c0
c0
c0
c0
c0
c0
c0
c0
c0
c0
c0
c0
fc
00
00
ENDCHAR
STARTCHAR \
ENCODING 92
SWIDTH 842 0
DWIDTH 16 0
BBX 16 20 0 -4
BITMAP
0000
0000
0000
c000
6000
3000
1800
0c00
0600
0300
0180
00c0
0060
0030
0018
000c
0006
0003
0000
0000
ENDCHAR
STARTCHAR ]
ENCODING 93
SWIDTH 842 0
DWIDTH 16 0
BBX 16 20 0 -4
BITMAP
00
00
00
fc
0c
0c
0c
0c
0c
0c
0c
0c
0c
0c
0c
0c
0c
fc
00
00
ENDCHAR
STARTCHAR ^
ENCODING 94
SWIDTH 789 0
DWIDTH 15 0
BBX 15 20 0 -4
BITMAP
0000
0700
0d80
18c0
3060
6030
c018
0000
0000
0000
0000
0000
0000
0000
0000
0000
0000
0000
0000
0000
ENDCHAR
STARTCHAR _
ENCODING 95
SWIDTH 789 0
DWIDTH 15 0
BBX 15 20 0 -4
BITMAP
0000
0000
0000
0000
0000
0000
0000
0000
0000
0000
0000
0000
0000
0000
0000
0000
0000
fffc
fffc
0000
ENDCHAR
STARTCHAR `
ENCODING 96
SWIDTH 842 0
DWIDTH 16 0
BBX 16 20 0 -4
BITMAP
00
00
00
00
00
00
00
00
00
00
00
00
00
00
00
00
00
00
00
00
ENDCHAR
STARTCHAR a
ENCODING 97
SWIDTH 842 0
DWIDTH 16 0
BBX 16 20 0 -4
BITMAP
0000
0000
0000
0000
0000
0000
0000
3f80
60e0
0060
3f60
61e0
c060
c0e0
e378
3e38
0000
0000
0000
0000
ENDCHAR
STARTCHAR b
ENCODING 98
SWIDTH 842 0
DWIDTH 16 0
BBX 16 20 0 -4
BITMAP
0000
0000
0000
f000
3000
3000
3000
37e0
3c38
300c
300c
300c
300c
380c
3c18
f7e0
0000
0000
0000
0000
ENDCHAR
STARTCHAR c
ENCODING 99
SWIDTH 842 0
DWIDTH 16 0
BBX 16 20 0 -4
BITMAP
0000
0000
0000
0000
0000
0000
0000
1fa0
70e0
c020
c000
c000
c000
6030
70e0
1f80
0000
0000
0000
0000
ENDCHAR
STARTCHAR d
ENCODING 100
SWIDTH 842 0
DWIDTH 16 0
BBX 16 20 0 -4
BITMAP
0000
0000
0000
03f0
0030
0030
0030
1fb0
3070
6030
c030
c030
c030
6070
70f0
1f1c
0000
0000
0000
0000
ENDCHAR
STARTCHAR e
ENCODING 101
SWIDTH 842 0
DWIDTH 16 0
BBX 16 20 0 -4
BITMAP
0000
0000
0000
0000
0000
0000
0000
1fc0
7070
c018
c018
fff8
c000
6008
7038
1fe0
0000
0000
0000
0000
ENDCHAR
STARTCHAR f
ENCODING 102
SWIDTH 842 0
DWIDTH 16 0
BBX 16 20 0 -4
BITMAP
0000
0000
0000
03f0
0e00
1800
1800
1800
ffe0
1800
1800
1800
1800
1800
1800
ffe0
0000
0000
0000
0000
ENDCHAR
STARTCHAR g
ENCODING 103
SWIDTH 842 0
DWIDTH 16 0
BBX 16 20 0 -4
BITMAP
0000
0000
0000
0000
0000
0000
0000
3f9c
60f0
c030
c030
c030
c070
60b0
3f30
0030
0030
00e0
3f80
0000
ENDCHAR
STARTCHAR h
ENCODING 104
SWIDTH 842 0
DWIDTH 16 0
BBX 16 20 0 -4
BITMAP
0000
0000
0000
f800
1800
1800
1800
1be0
1e38
180c
180c
180c
180c
180c
180c
7e3e
0000
0000
0000
0000
ENDCHAR
STARTCHAR i
ENCODING 105
SWIDTH 842 0
DWIDTH 16 0
BBX 16 20 0 -4
BITMAP
0000
0000
0000
0600
0600
0000
0000
7e00
0600
0600
0600
0600
0600
0600
0600
fff0
0000
0000
0000
0000
ENDCHAR
STARTCHAR j
ENCODING 106
SWIDTH 842 0
DWIDTH 16 0
BBX 16 20 0 -4
BITMAP
0000
0000
0000
0700
0700
0000
0000
ff80
0180
0180
0180
0180
0180
0180
0180
0180
0180
0180
c300
7e00
ENDCHAR
STARTCHAR k
ENCODING 107
SWIDTH 842 0
DWIDTH 16 0
BBX 16 20 0 -4
BITMAP
0000
0000
0000
0000
f000
3000
3000
31f8
30e0
3380
3f00
3f00
3180
30e0
3038
f07c
0000
0000
0000
0000
ENDCHAR
STARTCHAR l
ENCODING 108
SWIDTH 842 0
DWIDTH 16 0
BBX 16 20 0 -4
BITMAP
0000
0000
0000
7e00
0600
0600
0600
0600
0600
0600
0600
0600
0600
0600
0600
fff0
0000
0000
0000
0000
ENDCHAR
STARTCHAR m
ENCODING 109
SWIDTH 842 0
DWIDTH 16 0
BBX 16 20 0 -4
BITMAP
0000
0000
0000
0000
0000
0000
0000
de78
73ce
6186
6186
6186
6186
6186
6186
f9e7
0000
0000
0000
0000
ENDCHAR
STARTCHAR n
ENCODING 110
SWIDTH 842 0
DWIDTH 16 0
BBX 16 20 0 -4
BITMAP
0000
0000
0000
0000
0000
0000
0000
e7c0
3c70
3030
3030
3030
3030
3030
3030
fc7c
0000
0000
0000
0000
ENDCHAR
STARTCHAR o
ENCODING 111
SWIDTH 842 0
DWIDTH 16 0
BBX 16 20 0 -4
BITMAP
0000
0000
0000
0000
0000
0000
0000
0fc0
3870
6018
c00c
c00c
c00c
6018
3830
0fe0
0000
0000
0000
0000
ENDCHAR
STARTCHAR p
ENCODING 112
SWIDTH 842 0
DWIDTH 16 0
BBX 16 20 0 -4
BITMAP
0000
0000
0000
0000
0000
0000
0000
73f0
1e1c
1806
1806
1806
1806
1806
1e1c
1bf0
1800
1800
1800
ff80
ENDCHAR
STARTCHAR q
ENCODING 113
SWIDTH 842 0
DWIDTH 16 0
BBX 16 20 0 -4
BITMAP
0000
0000
0000
0000
0000
0000
0000
0f80
30de
6038
c018
c018
c018
6038
30d8
0f98
0018
0018
0018
01fe
ENDCHAR
STARTCHAR r
ENCODING 114
SWIDTH 842 0
DWIDTH 16 0
BBX 16 20 0 -4
BITMAP
0000
0000
0000
0000
0000
0000
0000
f8f0
1b18
1e00
1c00
1800
1800
1800
1800
ffe0
0000
0000
0000
0000
ENDCHAR
STARTCHAR s
ENCODING 115
SWIDTH 842 0
DWIDTH 16 0
BBX 16 20 0 -4
BITMAP
0000
0000
0000
0000
0000
0000
0000
3fa0
c0e0
c020
7000
0f00
00c0
8060
e060
bf80
0000
0000
0000
0000
ENDCHAR
STARTCHAR t
ENCODING 116
SWIDTH 842 0
DWIDTH 16 0
BBX 16 20 0 -4
BITMAP
0000
0000
0000
1800
1800
1800
1800
ffc0
1800
1800
1800
1800
1800
1800
0c70
07c0
0000
0000
0000
0000
ENDCHAR
STARTCHAR u
ENCODING 117
SWIDTH 842 0
DWIDTH 16 0
BBX 16 20 0 -4
BITMAP
0000
0000
0000
0000
0000
0000
0000
f0f8
3018
3018
3018
3018
3018
3038
187e
0fc6
0000
0000
0000
0000
ENDCHAR
STARTCHAR v
ENCODING 118
SWIDTH 842 0
DWIDTH 16 0
BBX 16 20 0 -4
BITMAP
0000
0000
0000
0000
0000
0000
0000
fc7e
3018
1830
1830
0c60
0c60
06c0
07c0
0380
0000
0000
0000
0000
ENDCHAR
STARTCHAR w
ENCODING 119
SWIDTH 842 0
DWIDTH 16 0
BBX 16 20 0 -4
BITMAP
0000
0000
0000
0000
0000
0000
0000
f81f
6006
6186
318c
318c
1a78
1e78
0c30
0c30
0000
0000
0000
0000
ENDCHAR
STARTCHAR x
ENCODING 120
SWIDTH 842 0
DWIDTH 16 0
BBX 16 20 0 -4
BITMAP
0000
0000
0000
0000
0000
0000
0000
fcfc
7030
1ce0
0780
0780
0dc0
1870
7038
fcfe
0000
0000
0000
0000
ENDCHAR
STARTCHAR y
ENCODING 121
SWIDTH 842 0
DWIDTH 16 0
BBX 16 20 0 -4
BITMAP
0000
0000
0000
0000
0000
0000
0000
f87e
600c
3018
1830
0c60
06c0
0380
0300
0600
0c00
1800
ff00
0000
ENDCHAR
STARTCHAR z
ENCODING 122
SWIDTH 842 0
DWIDTH 16 0
BBX 16 20 0 -4
BITMAP
0000
0000
0000
0000
0000
0000
0000
fff0
c070
c0c0
0380
0600
1c00
3030
e030
fff0
0000
0000
0000
0000
ENDCHAR
STARTCHAR {
ENCODING 123
SWIDTH 842 0
DWIDTH 16 0
BBX 16 20 0 -4
BITMAP
00
00
00
00
00
00
00
00
00
00
00
00
00
00
00
00
00
00
00
00
ENDCHAR
STARTCHAR |
ENCODING 124
SWIDTH 842 0
DWIDTH 16 0
BBX 16 20 0 -4
BITMAP
00
00
00
00
00
00
00
00
00
00
00
00
00
00
00
00
00
00
00
00
ENDCHAR
STARTCHAR }
ENCODING 125
SWIDTH 842 0
DWIDTH 16 0
BBX 16 20 0 -4
BITMAP
00
00
00
00
00
00
00
00
00
00
00
00
00
00
00
00
00
00
00
00
ENDCHAR
STARTCHAR ~
ENCODING 126
SWIDTH 842 0
DWIDTH 16 0
BBX 16 20 0 -4
BITMAP
00
00
00
00
00
00
00
00
00
00
00
00
00
00
00
00
00
00
00
00
ENDCHAR
ENDFONT
